<svg xmlns="http://www.w3.org/2000/svg" width="637.81" height="451.549" viewBox="0 0 637.81 451.549">
  <path id="Path_591" data-name="Path 591" d="M-2498.7-2884.224c-56.827,9.823-57.215,40.385-124.167,71.147-15.831,7.274-97.138,42.408-182.042,7.88-16.567-6.737-88.992-36.191-111.9-111.9-26.9-88.9,38.013-163.759,40.979-167.069,64.707-72.194,170.635-63.655,246.662-57.529,31.253,2.52,107.977,11.882,187.559,59.893,45.327,27.346,101.591,61.289,103.236,114.269.862,27.766-13.272,60.925-39.4,76.442C-2415.236-2868.856-2442.388-2893.958-2498.7-2884.224Z" transform="translate(2394.398 3605.462) rotate(10)" fill="#667d6b"/>
</svg>
