<svg xmlns="http://www.w3.org/2000/svg" width="637.81" height="451.549" viewBox="0 0 637.81 451.549">
  <g id="Blob" transform="translate(110.905 163.774)">
    <path id="Path_591" data-name="Path 591" d="M-2498.7-2884.224c-56.827,9.823-57.215,40.385-124.167,71.147-15.831,7.274-97.138,42.408-182.042,7.88-16.567-6.737-88.992-36.191-111.9-111.9-26.9-88.9,38.013-163.759,40.979-167.069,64.707-72.194,170.635-63.655,246.662-57.529,31.253,2.52,107.977,11.882,187.559,59.893,45.327,27.346,101.591,61.289,103.236,114.269.862,27.766-13.272,60.925-39.4,76.442C-2415.236-2868.856-2442.388-2893.958-2498.7-2884.224Z" transform="translate(2283.493 3441.688) rotate(10)" fill="#667d6b"/>
    <g id="Group_203" data-name="Group 203" transform="translate(14.435 -6.843)" opacity="0.5">
      <g id="Ellipse_9" data-name="Ellipse 9" transform="translate(249.426 232.695)" fill="none" stroke="#20271a" stroke-width="1.2">
        <circle cx="5.074" cy="5.074" r="5.074" stroke="none"/>
        <circle cx="5.074" cy="5.074" r="4.474" fill="none"/>
      </g>
      <path id="Path_596" data-name="Path 596" d="M0,0V219.037" transform="translate(254.5)" fill="#20271a" stroke="#20271a" stroke-width="1.2"/>
      <path id="Path_592" data-name="Path 592" d="M204.129,667.946a9.23,9.23,0,0,1,2.15,3.056,2.8,2.8,0,0,1-4.362,3.359,9.3,9.3,0,0,1-2.483-2.987c-1.1-1.774-7.2-9.9-4.583-11.8C196.629,658.285,202.727,666.44,204.129,667.946Z" transform="translate(60.296 -473.742)" fill="none" stroke="#20271a" stroke-miterlimit="10" stroke-width="1.2"/>
      <path id="Path_620" data-name="Path 620" d="M204.129,667.946a9.23,9.23,0,0,1,2.15,3.056,2.8,2.8,0,0,1-4.362,3.359,9.3,9.3,0,0,1-2.483-2.987c-1.1-1.774-7.2-9.9-4.583-11.8C196.629,658.285,202.727,666.44,204.129,667.946Z" transform="translate(60.296 -639.742)" fill="none" stroke="#20271a" stroke-miterlimit="10" stroke-width="1.2"/>
      <path id="Path_593" data-name="Path 593" d="M196.574,667.946a9.23,9.23,0,0,0-2.15,3.056,2.8,2.8,0,0,0,4.362,3.359,9.3,9.3,0,0,0,2.483-2.987c1.1-1.774,7.2-9.9,4.583-11.8C204.074,658.285,197.976,666.44,196.574,667.946Z" transform="translate(48.001 -550.162)" fill="#20271a" stroke="#20271a" stroke-miterlimit="10" stroke-width="1.2"/>
      <path id="Path_612" data-name="Path 612" d="M196.574,667.946a9.23,9.23,0,0,0-2.15,3.056,2.8,2.8,0,0,0,4.362,3.359,9.3,9.3,0,0,0,2.483-2.987c1.1-1.774,7.2-9.9,4.583-11.8C204.074,658.285,197.976,666.44,196.574,667.946Z" transform="translate(48.001 -452.162)" fill="#20271a" stroke="#20271a" stroke-miterlimit="10" stroke-width="1.2"/>
    </g>
    <g id="Group_202" data-name="Group 202" opacity="0.5">
      <path id="Path_595" data-name="Path 595" d="M0,0V145.686" transform="translate(306.295)" fill="#20271a" stroke="#20271a" stroke-width="1.2"/>
      <g id="Ellipse_9-2" data-name="Ellipse 9" transform="translate(301.295 144.88)" fill="none" stroke="#20271a" stroke-width="1.2">
        <circle cx="5" cy="5" r="5" stroke="none"/>
        <circle cx="5" cy="5" r="4.4" fill="none"/>
      </g>
      <path id="Path_592-2" data-name="Path 592" d="M204.129,667.946a9.23,9.23,0,0,1,2.15,3.056,2.8,2.8,0,0,1-4.362,3.359,9.3,9.3,0,0,1-2.483-2.987c-1.1-1.774-7.2-9.9-4.583-11.8C196.629,658.285,202.727,666.44,204.129,667.946Z" transform="translate(112.091 -567.557)" fill="#20271a" stroke="#20271a" stroke-miterlimit="10" stroke-width="1.2"/>
      <path id="Path_593-2" data-name="Path 593" d="M196.574,667.946a9.23,9.23,0,0,0-2.15,3.056,2.8,2.8,0,0,0,4.362,3.359,9.3,9.3,0,0,0,2.483-2.987c1.1-1.774,7.2-9.9,4.583-11.8C204.074,658.285,197.976,666.44,196.574,667.946Z" transform="translate(99.796 -584.977)" fill="none" stroke="#20271a" stroke-miterlimit="10" stroke-width="1.2"/>
    </g>
    <g id="Group_207" data-name="Group 207" opacity="0.5">
      <path id="Path_593-3" data-name="Path 593" d="M196.574,667.946a9.23,9.23,0,0,0-2.15,3.056,2.8,2.8,0,0,0,4.362,3.359,9.3,9.3,0,0,0,2.483-2.987c1.1-1.774,7.2-9.9,4.583-11.8C204.074,658.285,197.976,666.44,196.574,667.946Z" transform="translate(-83.59 -579.838)" fill="none" stroke="#20271a" stroke-miterlimit="10" stroke-width="1.2"/>
      <path id="Path_594" data-name="Path 594" d="M204.129,667.947a9.23,9.23,0,0,1,2.15,3.056,2.8,2.8,0,0,1-4.362,3.359,9.3,9.3,0,0,1-2.483-2.987c-1.1-1.774-7.2-9.9-4.583-11.8C196.629,658.285,202.727,666.44,204.129,667.947Z" transform="translate(-71.295 -560.969)" fill="#20271a" stroke="#20271a" stroke-miterlimit="10" stroke-width="1.2"/>
      <path id="Path_621" data-name="Path 621" d="M196.574,667.947a9.23,9.23,0,0,0-2.15,3.056,2.8,2.8,0,0,0,4.362,3.359,9.3,9.3,0,0,0,2.483-2.987c1.1-1.774,7.2-9.9,4.583-11.8C204.074,658.285,197.976,666.44,196.574,667.947Z" transform="translate(-83.59 -638.969)" fill="#20271a" stroke="#20271a" stroke-miterlimit="10" stroke-width="1.2"/>
      <g id="Group_181" data-name="Group 181" transform="translate(-22.001 -6.843)">
        <path id="Path_595-2" data-name="Path 595" d="M0,0V156.723" transform="translate(144.91)" fill="#20271a" stroke="#20271a" stroke-width="1.2"/>
      </g>
      <g id="Ellipse_10" data-name="Ellipse 10" transform="translate(118.909 148.88)" fill="#20271a" stroke="#20271a" stroke-width="1">
        <circle cx="4" cy="4" r="4" stroke="none"/>
        <circle cx="4" cy="4" r="3.5" fill="none"/>
      </g>
    </g>
  </g>
</svg>
