<svg xmlns="http://www.w3.org/2000/svg" xmlns:xlink="http://www.w3.org/1999/xlink" width="290" height="358" viewBox="0 0 290 358">
  <defs>
    <clipPath id="clip-path">
      <rect id="Rectangle_179" data-name="Rectangle 179" width="290" height="358" transform="translate(0 1167)" fill="#fff" stroke="#707070" stroke-width="1"/>
    </clipPath>
    <linearGradient id="linear-gradient" x1="0.921" y1="0.15" x2="0.567" y2="0.953" gradientUnits="objectBoundingBox">
      <stop offset="0" stop-color="#667d6b" stop-opacity="0"/>
      <stop offset="1" stop-color="#e9e5e0"/>
    </linearGradient>
    <linearGradient id="linear-gradient-2" x1="0.429" y1="0.255" x2="0.282" y2="0.951" gradientUnits="objectBoundingBox">
      <stop offset="0" stop-color="#667d6b"/>
      <stop offset="1" stop-color="#fbf4eb"/>
    </linearGradient>
  </defs>
  <g id="Mask_Group_7" data-name="Mask Group 7" transform="translate(0 -1167)" clip-path="url(#clip-path)">
    <g id="Group_417" data-name="Group 417">
      <path id="Path_682" data-name="Path 682" d="M126,529c7.782-42.863,72.758-66.175,145.279-92.194C334.792,414.019,384.634,396.137,438,419c37.62,16.117,77.472,52.687,86.414,101.4C538.995,599.841,465.471,679.422,393,701,264.133,739.369,112.742,602.028,126,529Z" transform="translate(-511.79 1173.244) rotate(-43)" opacity="0.61" fill="url(#linear-gradient)"/>
      <path id="Path_683" data-name="Path 683" d="M-256.51-1261.251c5.016-12.163,21.278-20.628,53.6-37.062,28.485-14.484,42.811-25.3,65-27.654,17.866-1.9,35.584-.3,48.181,10.263,17.607,14.761,14.4,43.715,12.544,60.44-4.522,40.8-28.067,67.284-32.5,72.129-7.155,7.817-47.147,51.51-86.669,39.628-23.793-7.154-35.442-30.849-47.325-55.023C-254.211-1219.95-264.723-1241.335-256.51-1261.251Z" transform="translate(1232.447 1602.418) rotate(-74)" opacity="0.16" fill="url(#linear-gradient-2)"/>
    </g>
  </g>
</svg>
