<svg xmlns="http://www.w3.org/2000/svg" xmlns:xlink="http://www.w3.org/1999/xlink" width="100%" viewBox="0 0 414 662">
  <defs>
    <clipPath id="clip-path">
      <rect id="Rectangle_174" data-name="Rectangle 174" width="414" height="662" fill="#fff" stroke="#707070" stroke-width="1"/>
    </clipPath>
    <linearGradient id="linear-gradient" x1="0.3" y1="0.759" x2="0.246" y2="0.9" gradientUnits="objectBoundingBox">
      <stop offset="0" stop-color="#667d6b"/>
      <stop offset="1" stop-color="#fff"/>
    </linearGradient>
    <filter id="Path_646" x="-90.838" y="-112.408" width="814.503" height="816.135" filterUnits="userSpaceOnUse">
      <feOffset dy="3" input="SourceAlpha"/>
      <feGaussianBlur stdDeviation="13" result="blur"/>
      <feFlood flood-opacity="0.161"/>
      <feComposite operator="in" in2="blur"/>
      <feComposite in="SourceGraphic"/>
    </filter>
    <linearGradient id="linear-gradient-2" x1="0.349" y1="0.846" x2="0.5" y2="1" gradientUnits="objectBoundingBox">
      <stop offset="0" stop-color="#667d6b"/>
      <stop offset="1" stop-color="#fff" stop-opacity="0.388"/>
    </linearGradient>



    <linearGradient id="linear-gradient-3" x1="0.475" y1="0.53" x2="0.589" y2="0.768" gradientUnits="objectBoundingBox">
      <stop offset="0" stop-color="#667d6b"/>
      <stop offset="1" stop-color="#667d6b" stop-opacity="0.5"/>

                     
    </linearGradient>


    <filter id="Path_641" x="-337.715" y="-168.71" width="978.94" height="868.691" filterUnits="userSpaceOnUse">
      <feOffset dy="3" input="SourceAlpha"/>
      <feGaussianBlur stdDeviation="18.5" result="blur-2"/>
      <feFlood flood-opacity="0.2"/>
      <feComposite operator="in" in2="blur-2"/>
      <feComposite in="SourceGraphic"/>
    </filter>
  </defs>
  <g id="Mask_Group_2" data-name="Mask Group 2" clip-path="url(#clip-path)">
    <g transform="matrix(1, 0, 0, 1, 0, 0)" filter="url(#Path_646)">
      <path id="Path_646-2" data-name="Path 646" d="M-250.8-1134.358c14.748-35.762,62.561-60.65,157.585-108.969,83.75-42.585,125.87-74.377,191.114-81.307,52.529-5.579,104.623-.876,141.659,30.175,51.766,43.4,42.331,128.527,36.881,177.7-13.3,119.97-82.52,197.825-95.557,212.07C159.844-881.7,42.262-753.238-73.94-788.172c-69.955-21.033-104.2-90.7-139.144-161.777C-244.044-1012.928-274.951-1075.8-250.8-1134.358Z" transform="translate(818.26 1220.06) rotate(-29)" opacity="0.17" fill="url(#linear-gradient)"/>
    </g>
    <path id="blobblob" d="M1010.484,538.521c-8.533,14.74-21.513,27.441-37.489,33.48-37.593,14.2-58.236-12.954-110.948-13.131-53.193-.179-58.441,27.52-124.186,44.74-15.546,4.072-95.03,22.964-166.625-22-7.793-4.894-30.249-19-50.088-43.089V-109h489.335Z" transform="translate(-572.987 42.684)" opacity="0.18" fill="url(#linear-gradient-2)"/>
    <g transform="matrix(1, 0, 0, 1, 0, 0)" filter="url(#Path_641)">
      <path id="Path_641-2" data-name="Path 641" d="M1959.834-2385.81c54.625,73.523,175.226,111.864,261.838,77.126,96.887-38.859,61.666-79.577,179.913-147.547,96.806-55.644,171.694,19.734,240.955-40.24,65.154-56.417,137.279-296.908,18.408-402.958s-296.854-114.925-493.892-21.241C1940.1-2812.762,1851.181-2532.056,1959.834-2385.81Z" transform="matrix(1, 0.09, -0.09, 1, -2388.72, 2691.02)" opacity="0.7" fill="url(#linear-gradient-3)"/>
    </g>
  </g>
</svg>

     