<svg id="Layer_1" data-name="Layer 1" xmlns="http://www.w3.org/2000/svg" viewBox="0 0 561.75 399.92"><defs><style>.cls-1,.cls-4{opacity:0.5;}.cls-2,.cls-4{isolation:isolate;}.cls-3{fill:#20271a;}.cls-5{fill:#fff;}</style></defs><g id="S" class="cls-1"><g class="cls-2"><path class="cls-3" d="M49.3,346.15a50.52,50.52,0,0,1-24-5.53A47.2,47.2,0,0,1,8.75,326.68a2.83,2.83,0,0,1,.36-3.93l10.36-12q2-2.32,4.11-.36,12,12.31,25.19,12.32,8,0,12.77-3.39t4.73-10q0-5.72-3.48-8.76T51.27,294l-15.19-7.14q-25-11.43-25-34.12,0-16.42,11-25.81t27.6-9.38q21.25,0,36.62,16.43,1.78,1.8.18,4.11L76.28,250.41c-1.2,1.55-2.51,1.78-3.94.71q-11.61-10.19-21.79-10.18c-4.52,0-8.13,1.07-10.8,3.22a10.6,10.6,0,0,0-4,8.75,10.22,10.22,0,0,0,3.21,8q3.21,2.85,11.43,6.61l12.87,5.89a97.17,97.17,0,0,1,10.18,5.45,58.3,58.3,0,0,1,8.66,6.88A26.78,26.78,0,0,1,88.87,296a37.58,37.58,0,0,1,2.23,13.4q0,17.86-12.23,27.33T49.3,346.15Z"/></g></g><g id="R" class="cls-1"><g class="cls-2"><path class="cls-3" d="M99.85,150.25q2,3.23-1.78,3.22H76.63a3.48,3.48,0,0,1-3.21-1.79L47,109.71H37.87v41.08a2.37,2.37,0,0,1-2.68,2.68H15a2.36,2.36,0,0,1-2.67-2.68V31.11A2.36,2.36,0,0,1,15,28.43H52.7q21.6,0,32.77,11T96.64,69q0,29.11-24.83,37.87Zm-62-99.13V87H51.8q20.37,0,20.37-18,0-17.87-20.37-17.86Z"/></g></g><g id="T" class="cls-1"><g class="cls-2"><path class="cls-3" d="M181.48,344a2.37,2.37,0,0,1-2.68-2.68V241.66H154.33a2.37,2.37,0,0,1-2.68-2.68V221.65a2.37,2.37,0,0,1,2.68-2.68h74.31a2.37,2.37,0,0,1,2.68,2.68V239a2.37,2.37,0,0,1-2.68,2.68H204.35v99.67a2.37,2.37,0,0,1-2.68,2.68Z"/></g></g><g id="E" class="cls-1"><g class="cls-2"><path class="cls-3" d="M157.9,153.47a2.36,2.36,0,0,1-2.67-2.68V31.11a2.36,2.36,0,0,1,2.67-2.68h63.6a2.37,2.37,0,0,1,2.68,2.68V48.44a2.37,2.37,0,0,1-2.68,2.68H180.77V78.8h38.41a2.37,2.37,0,0,1,2.67,2.68V98.81a2.36,2.36,0,0,1-2.67,2.68H180.77v29.29H221.5a2.37,2.37,0,0,1,2.68,2.68v17.33a2.37,2.37,0,0,1-2.68,2.68Z"/></g></g><g class="cls-4"><path class="cls-3" d="M463.33,344a2.37,2.37,0,0,1-2.68-2.68V286L424,222.18c-1.19-2.14-.6-3.21,1.79-3.21h21.07a3.54,3.54,0,0,1,3.22,1.78l23.4,42,23.22-42A3.54,3.54,0,0,1,500,219H521q3.57,0,1.78,3.21l-36.62,64.13v55a2.37,2.37,0,0,1-2.68,2.68Z"/></g><g class="cls-4"><path class="cls-3" d="M462.24,151.83a2.37,2.37,0,0,1-2.68-2.68V29.47a2.37,2.37,0,0,1,2.68-2.68h20.18a2.37,2.37,0,0,1,2.68,2.68V149.15a2.37,2.37,0,0,1-2.68,2.68Z"/></g><g class="cls-4"><path class="cls-3" d="M380.62,340.79q2,3.22-1.78,3.22H357.4a3.48,3.48,0,0,1-3.21-1.79l-26.44-42h-9.11v41.08A2.37,2.37,0,0,1,316,344H295.77a2.36,2.36,0,0,1-2.67-2.68V221.65a2.36,2.36,0,0,1,2.67-2.68h37.7q21.6,0,32.77,11t11.17,29.56q0,29.12-24.83,37.87Zm-62-99.13v35.9h13.93q20.37,0,20.37-18,0-17.86-20.37-17.86Z"/></g><path class="cls-5" d="M404.13,52.63H376.7A18.29,18.29,0,0,0,371,17.12c-.31,0-.62,0-.86,0-15.52,0-23.69,13.66-27.54,23.42-3.85-9.76-12-23.42-27.46-23.42-.32,0-.63,0-.94,0a18.31,18.31,0,0,0-12.14,31.56,18.43,18.43,0,0,0,6.42,4H281a3,3,0,0,0-3,3V86.41a3,3,0,0,0,3,3h9.6v61.34a3,3,0,0,0,3,3h97.89a3,3,0,0,0,3-3V89.41h9.61a3,3,0,0,0,3-3V55.63A3,3,0,0,0,404.13,52.63ZM370.21,23.12c.21,0,.41,0,.63,0a12.3,12.3,0,1,1-.71,24.59H346.47C348.76,40.12,355.51,23.12,370.21,23.12ZM302.36,35.73a12.3,12.3,0,0,1,12-12.61h.7c14.59,0,21.35,17,23.65,24.59H315a12.31,12.31,0,0,1-12.61-12ZM284,58.63h55.56V83.41H284Zm12.6,30.78h43v58.34h-43Zm91.89,58.34H345.59V89.41h42.93Zm12.61-64.34H345.59V58.63h55.54Z"/></svg>