<svg xmlns="http://www.w3.org/2000/svg" width="19.392" height="8.326" viewBox="0 0 19.392 8.326">
  <g id="Group_373" data-name="Group 373" transform="translate(0)">
    <g id="Ellipse_20" data-name="Ellipse 20" transform="translate(7.707 2.304)" fill="none" stroke="#667d6b" stroke-width="1">
      <circle cx="1.859" cy="1.859" r="1.859" stroke="none"/>
      <circle cx="1.859" cy="1.859" r="1.359" fill="none"/>
    </g>
    <g id="Path_673" data-name="Path 673" transform="translate(8.311 0) rotate(90)" fill="none">
      <path d="M4.163,0C6.146,0,9.121,5.249,8.129,7S1.188,8.749.2,7,2.18,0,4.163,0Z" stroke="none"/>
      <path d="M 4.162992477416992 0.9999985694885254 C 3.860382556915283 0.9999985694885254 2.91328239440918 1.655328750610352 1.99326229095459 3.234128475189209 C 1.073532581329346 4.812438488006592 0.8643527030944824 6.148348808288574 1.066962242126465 6.505898475646973 C 1.258282661437988 6.843518733978271 2.440632343292236 7.311208724975586 4.162992477416992 7.311208724975586 C 5.885342597961426 7.311208724975586 7.067702293395996 6.843508720397949 7.25902271270752 6.505898475646973 C 7.46163272857666 6.148348808288574 7.252452373504639 4.812438488006592 6.332722663879395 3.234128475189209 C 5.412702560424805 1.655328750610352 4.465602397918701 0.9999985694885254 4.162992477416992 0.9999985694885254 M 4.162992477416992 -9.5367431640625e-07 C 6.146012306213379 -9.5367431640625e-07 9.120552062988281 5.249178886413574 8.129042625427246 6.998908519744873 C 7.137532234191895 8.748638153076172 1.18845272064209 8.748638153076172 0.1969423294067383 6.998908519744873 C -0.7945671081542969 5.249178886413574 2.179972648620605 -9.5367431640625e-07 4.162992477416992 -9.5367431640625e-07 Z" stroke="none" fill="#667d6b"/>
    </g>
    <g id="Path_674" data-name="Path 674" transform="translate(19.392 0) rotate(90)" fill="none">
      <path d="M4.163,8.311c1.983,0,4.958-5.249,3.966-7S1.188-.437.2,1.312,2.18,8.311,4.163,8.311Z" stroke="none"/>
      <path d="M 4.162961959838867 7.311206340789795 C 4.465561866760254 7.311206340789795 5.412642002105713 6.655886650085449 6.332632064819336 5.077126502990723 C 7.252381801605225 3.498796463012695 7.461572170257568 2.162856578826904 7.258962154388428 1.805306553840637 C 7.067641735076904 1.467686533927917 5.885302066802979 0.999996542930603 4.162961959838867 0.999996542930603 C 2.440631866455078 0.999996542930603 1.258281946182251 1.46769654750824 1.066972017288208 1.805306553840637 C 0.8643519878387451 2.162856578826904 1.07354199886322 3.498796463012695 1.993291974067688 5.077126502990723 C 2.913281917572021 6.655886650085449 3.86036205291748 7.311206340789795 4.162961959838867 7.311206340789795 M 4.162961959838867 8.311206817626953 C 2.179951906204224 8.311206817626953 -0.794558048248291 3.062026500701904 0.1969419568777084 1.312296509742737 C 1.188452124595642 -0.4374334514141083 7.137473106384277 -0.4374333024024963 8.128981590270996 1.312296509742737 C 9.120481491088867 3.062026500701904 6.145971775054932 8.311206817626953 4.162961959838867 8.311206817626953 Z" stroke="none" fill="#667d6b"/>
    </g>
  </g>
</svg>
