<svg id="Layer_1" data-name="Layer 1" xmlns="http://www.w3.org/2000/svg" viewBox="0 0 561.75 399.92"><defs><style>.cls-1,.cls-4{opacity:0.5;}.cls-2,.cls-3,.cls-4{isolation:isolate;}.cls-3,.cls-4{font-size:178.63px;fill:#20271a;font-family:GreycliffCF-Bold, Greycliff CF;font-weight:700;letter-spacing:0.18em;}.cls-5,.cls-6{fill:none;stroke:#fff;stroke-linejoin:round;stroke-width:6px;}.cls-5{stroke-linecap:round;}</style></defs><g id="Group_252" data-name="Group 252" class="cls-1"><g id="S" class="cls-2"><text class="cls-3" transform="translate(0 344.01)">S</text></g><g id="R" class="cls-2"><text class="cls-3" transform="translate(0 153.47)">R</text></g></g><g id="Group_251" data-name="Group 251" class="cls-1"><g id="T" class="cls-2"><text class="cls-3" transform="translate(142.9 344.01)">T</text></g><g id="E" class="cls-2"><text class="cls-3" transform="translate(142.9 153.47)">E</text></g></g><text class="cls-4" transform="translate(417.42 344.01)">Y</text><text class="cls-4" transform="translate(447.23 151.83)">I</text><text class="cls-4" transform="translate(280.77 344.01)">R</text><path id="Path_613" data-name="Path 613" class="cls-5" d="M438.39,139.07v61.56H340.5V139.07" transform="translate(-46.87 -49.88)"/><rect id="Rectangle_72" data-name="Rectangle 72" class="cls-5" x="281.03" y="55.63" width="123.1" height="30.78"/><line id="Line_27" data-name="Line 27" class="cls-6" x1="342.59" y1="150.75" x2="342.59" y2="50.73"/><path id="Path_614" data-name="Path 614" class="cls-5" d="M389.46,100.59H361.92a15.3,15.3,0,1,1,0-30.59C383.34,70,389.46,100.59,389.46,100.59Z" transform="translate(-46.87 -49.88)"/><path id="Path_615" data-name="Path 615" class="cls-5" d="M389.46,100.59H417A15.3,15.3,0,1,0,417,70C395.57,70,389.46,100.59,389.46,100.59Z" transform="translate(-46.87 -49.88)"/></svg>