<svg xmlns="http://www.w3.org/2000/svg" xmlns:xlink="http://www.w3.org/1999/xlink" width="1120.919" height="1056.668" viewBox="0 0 1120.919 1056.668">
  <defs>
    <filter id="Path_646" x="292.916" y="160.564" width="814.503" height="816.135" filterUnits="userSpaceOnUse">
      <feOffset dy="3" input="SourceAlpha"/>
      <feGaussianBlur stdDeviation="13" result="blur"/>
      <feFlood flood-opacity="0.161"/>
      <feComposite operator="in" in2="blur"/>
      <feComposite in="SourceGraphic"/>
    </filter>
    <filter id="Path_643" x="0" y="0" width="1120.919" height="1056.668" filterUnits="userSpaceOnUse">
      <feOffset dy="3" input="SourceAlpha"/>
      <feGaussianBlur stdDeviation="17.5" result="blur-2"/>
      <feFlood flood-opacity="0.2"/>
      <feComposite operator="in" in2="blur-2"/>
      <feComposite in="SourceGraphic"/>
    </filter>
  </defs>
  <g id="Group_347" data-name="Group 347" transform="translate(365.754 683.699)">
    <g transform="matrix(1, 0, 0, 1, -365.75, -683.7)" filter="url(#Path_646)">
      <path id="Path_646-2" data-name="Path 646" d="M-250.8-1134.358c14.748-35.762,62.561-60.65,157.585-108.969,83.75-42.585,125.87-74.377,191.114-81.307,52.529-5.579,104.623-.876,141.659,30.175,51.766,43.4,42.331,128.527,36.881,177.7-13.3,119.97-82.52,197.825-95.557,212.07C159.844-881.7,42.262-753.238-73.94-788.172c-69.955-21.033-104.2-90.7-139.144-161.777C-244.044-1012.928-274.951-1075.8-250.8-1134.358Z" transform="translate(1202.01 1493.03) rotate(-29)" fill="#667d6b" opacity="0.17"/>
    </g>
    <path id="blobblob" d="M1010.484,538.521c-8.533,14.74-21.513,27.441-37.489,33.48-37.593,14.2-58.236-12.954-110.948-13.131-53.193-.179-58.441,27.52-124.186,44.74-15.546,4.072-95.03,22.964-166.625-22-7.793-4.894-30.249-19-50.088-43.089V-109h489.335Z" transform="translate(-554.987 -488.316)" fill="#667d6b" opacity="0.18"/>
    <g transform="matrix(1, 0, 0, 1, -365.75, -683.7)" filter="url(#Path_643)">
      <path id="Path_643-2" data-name="Path 643" d="M1959.834-2385.81c54.625,73.523,175.226,111.864,261.838,77.126,96.887-38.859,61.666-79.577,179.913-147.547,96.806-55.644,171.694,19.734,240.955-40.24,65.154-56.417,137.279-296.908,18.408-402.958s-296.854-114.925-493.892-21.241C1940.1-2812.762,1851.181-2532.056,1959.834-2385.81Z" transform="matrix(0.92, 0.39, -0.39, 0.92, -2606.08, 2049.81)" fill="#667d6b" opacity="0.7"/>
    </g>
  </g>
</svg>
