<svg xmlns="http://www.w3.org/2000/svg" width="20.201" height="14.492" viewBox="0 0 20.201 14.492">
  <g id="youtube" transform="translate(-0.499 -3.5)">
    <path id="Path_698" data-name="Path 698" d="M19.8,6.112a2.426,2.426,0,0,0-1.693-1.745A62.847,62.847,0,0,0,10.6,4a57.428,57.428,0,0,0-7.505.4A2.426,2.426,0,0,0,1.4,6.147,25.309,25.309,0,0,0,1,10.764a25.309,25.309,0,0,0,.4,4.652,2.426,2.426,0,0,0,1.693,1.676,57.428,57.428,0,0,0,7.505.4,57.428,57.428,0,0,0,7.505-.4A2.426,2.426,0,0,0,19.8,15.345a25.309,25.309,0,0,0,.4-4.582,25.309,25.309,0,0,0-.4-4.652Z" transform="translate(0)" fill="none" stroke="#fff" stroke-linecap="round" stroke-linejoin="round" stroke-width="1"/>
    <path id="Path_699" data-name="Path 699" d="M9.75,14.188l5.018-2.854L9.75,8.48Z" transform="translate(-1.114 -0.57)" fill="none" stroke="#fff" stroke-linecap="round" stroke-linejoin="round" stroke-width="1"/>
  </g>
</svg>
