<svg xmlns="http://www.w3.org/2000/svg" width="14.12" height="15.69" viewBox="0 0 14.12 15.69">
  <path id="calendar-heart" d="M15.551,16.121V7.492H4.569v8.629H15.551M13.2,2h1.569V3.569h.784A1.569,1.569,0,0,1,17.12,5.138V16.121a1.569,1.569,0,0,1-1.569,1.569H4.569A1.569,1.569,0,0,1,3,16.121V5.138A1.569,1.569,0,0,1,4.569,3.569h.784V2H6.922V3.569H13.2V2M10.06,14.685l-.455-.416C7.989,12.8,6.922,11.838,6.922,10.653A1.711,1.711,0,0,1,8.648,8.927a1.88,1.88,0,0,1,1.412.651,1.88,1.88,0,0,1,1.412-.651A1.711,1.711,0,0,1,13.2,10.653c0,1.185-1.067,2.15-2.683,3.617Z" transform="translate(-3 -2)" fill="#f3f2f2"/>
</svg>
