<svg xmlns="http://www.w3.org/2000/svg" width="18.546" height="18.646" viewBox="0 0 18.546 18.646">
  <g id="details_white" transform="translate(-274.5 -615.424)">
    <path id="Intersection_76" data-name="Intersection 76" d="M3.25,15.083a5.059,5.059,0,0,1,.5-.74A2.294,2.294,0,0,0,4.072,11.8c-.072-.179-.227-.2-.385-.235a7.847,7.847,0,0,1-2.449-1.044A1.771,1.771,0,0,1,.4,9.543a4.481,4.481,0,0,1-.4-1.3c0-.034,0-.068,0-.1,0-.006,0-.01,0-.015A3.3,3.3,0,0,1,1.658,5.381c.4-.245.8-.447.924-.945a.305.305,0,0,1,.09-.15c.131-.127.27-.283.463-.2a.387.387,0,0,1,.225.451A3.755,3.755,0,0,0,3.4,5.781a3.636,3.636,0,0,0,.611,1.73,13.26,13.26,0,0,1,.963,1.721,1.076,1.076,0,0,1,.07.738c-.115.489-.4.973-.145,1.514.039.085-.041.226-.076.338a.935.935,0,0,0,.17.908.861.861,0,0,0,.2-.165A8.165,8.165,0,0,1,7.83,10.4c.467-.273.549-.47.393-.983a1.607,1.607,0,0,0-.156-.386,7.673,7.673,0,0,1-.822-1.792,2.631,2.631,0,0,0-.887-1.307A3.9,3.9,0,0,1,5.043,3.58,4.369,4.369,0,0,1,5.42,1.135C5.531.849,5.676.578,5.809.3A8.705,8.705,0,0,1,6.9,0,3.017,3.017,0,0,0,7.955,1.285a3.023,3.023,0,0,1,.75.992,1.787,1.787,0,0,1-.148,1.6c-.2.521-.439,1.03-.674,1.533a.915.915,0,0,0-.072.8.84.84,0,0,1,0,.757.545.545,0,0,0,.02.564c.34.691.7,1.378,1.072,2.126a12.958,12.958,0,0,0,1.273-1.34c.053-.061.086-.137.141-.193a1.876,1.876,0,0,0,.236-2.167,2.4,2.4,0,0,0-.145-.33,2.7,2.7,0,0,1,.039-2.473A5.177,5.177,0,0,1,12.564.7c.137.065.271.134.4.207-.27.177-.533.365-.787.571A3.908,3.908,0,0,0,10.59,4.238a2.457,2.457,0,0,0,.561,1.722c.25.329.6.324.691-.014.168-.64.553-1.19.674-1.843A13.883,13.883,0,0,0,13,2.136a.261.261,0,0,1,.326-.264c.23.033.27.207.223.4a1.075,1.075,0,0,1-.117.273,3.385,3.385,0,0,0-.311.9,7.973,7.973,0,0,1-.654,2.159,3.167,3.167,0,0,0-.2.564c-.066.207.02.324.227.3A2.2,2.2,0,0,0,14.3,5.3a4.745,4.745,0,0,0,.5-2.431c-.012-.211-.021-.422-.023-.632.16.155.316.315.467.481a10.63,10.63,0,0,1-.41,2.562,1.814,1.814,0,0,1-.6.931,3.893,3.893,0,0,1-1.055.725,1.25,1.25,0,0,1-.508.145,2.065,2.065,0,0,0-1.564.743,3.365,3.365,0,0,0-.7,1,1.447,1.447,0,0,0,1.359,0,8.386,8.386,0,0,0,1.578-.809A9.512,9.512,0,0,1,15.6,6.928a3.581,3.581,0,0,1,1.66-.234c.029.145.055.292.078.44-.117,0-.236.01-.354.02a4.886,4.886,0,0,0-1.342.211,16.591,16.591,0,0,0-2.922,1.6c-.08.052-.191.1-.152.221.053.15.191.113.3.094a1.981,1.981,0,0,0,.289-.066l2.213-.691.973-.3a.254.254,0,0,1,.346.141.278.278,0,0,1-.174.385,1.734,1.734,0,0,1-.348.08c-.846.137-1.635.48-2.461.682a.471.471,0,0,0-.367.277,1.882,1.882,0,0,0,1.6.527,4.557,4.557,0,0,0,2.449-1.133q-.026.282-.07.56-.346.282-.687.568a1.862,1.862,0,0,1-1.086.433c-.434.028-.871.042-1.309.056a.736.736,0,0,1-.457-.108,4.034,4.034,0,0,0-1.771-.776c-.09-.014-.234-.071-.234-.16,0-.358-.168-.334-.367-.311-.051,0-.105.01-.156.01a3.708,3.708,0,0,0-1.666.329.74.74,0,0,0-.264.122,7.514,7.514,0,0,1-2,1.237,2.341,2.341,0,0,0-.627.517,1.592,1.592,0,0,0,1.184.235,24.227,24.227,0,0,1,2.857-.527,3.39,3.39,0,0,1,2.006.607,6.851,6.851,0,0,0,1.266.775,3.012,3.012,0,0,0,1.332.221.439.439,0,0,1,.342.075.414.414,0,0,1,.162.271c-.107.151-.221.3-.338.443-.457.092-.926.139-1.379.26a7.484,7.484,0,0,0-2.057.776,1.9,1.9,0,0,1-2.459-.2c-.178-.16-.395-.277-.586-.418a2.189,2.189,0,0,1-.727-.767,2.624,2.624,0,0,0-.973-.945,1.3,1.3,0,0,0-.973-.052,1.965,1.965,0,0,0-1.424,1.223,3.016,3.016,0,0,1-.668.964,4.352,4.352,0,0,0-.6.791C3.525,15.293,3.387,15.19,3.25,15.083Zm5.465-2.094a1.107,1.107,0,0,0,.322.593,5.4,5.4,0,0,0,1.145.846,1.346,1.346,0,0,0,1.355.075c.617-.273,1.248-.508,1.873-.771.3-.131.668-.089,1.02-.39a7.311,7.311,0,0,1-2.361-1.176,2.171,2.171,0,0,0-.385-.155,3.246,3.246,0,0,0-2.482.137c-.135.052-.322.042-.377.319a17.691,17.691,0,0,1,1.824.174,4.16,4.16,0,0,1,.648.09c.24.042.357.2.275.432-.066.2-.246.151-.4.108-.283-.075-.572-.164-.861-.221a5.123,5.123,0,0,0-1-.117A3.035,3.035,0,0,0,8.715,12.989ZM1.336,6.152A2.514,2.514,0,0,0,1.691,10.3,14.232,14.232,0,0,0,3,10.864c.121.047.24.155.381.033a.58.58,0,0,0-.23-.4A7.427,7.427,0,0,1,1.936,8.663a5.137,5.137,0,0,1-.389-1.124.252.252,0,0,1,.168-.334c.17-.052.26.056.314.2a.864.864,0,0,1,.047.174,5.6,5.6,0,0,0,.654,1.6A8.928,8.928,0,0,0,4.154,10.83,3.159,3.159,0,0,0,4.473,10a1.306,1.306,0,0,0-.187-1.195A12.039,12.039,0,0,1,3.6,7.69a3.232,3.232,0,0,1-.549-1.435,9.008,9.008,0,0,0-.221-1.142C2.27,5.5,1.783,5.8,1.336,6.152ZM7.094,2.108a.5.5,0,0,1,.418.559.493.493,0,0,1-.191.362.571.571,0,0,0-.236.4,3.764,3.764,0,0,0,.17,2.06,9.883,9.883,0,0,0,1.008-2.22,1.2,1.2,0,0,0-.109-1.03A9.892,9.892,0,0,0,6.67.7C6.381.4,6.252.448,6.045.814a4.592,4.592,0,0,0-.559,2A3.4,3.4,0,0,0,6.18,5.042c.105.146.227.273.408.24a.362.362,0,0,0,.045-.319,10.365,10.365,0,0,1,.051-2.436c.016-.236.123-.419.381-.419Z" transform="translate(275.043 616)" fill="#f3f2f2" stroke="rgba(162,121,121,0)" stroke-miterlimit="10" stroke-width="1"/>
    <path id="Path_1039" data-name="Path 1039" d="M8.72,0A8.785,8.785,0,1,1,0,8.785,8.753,8.753,0,0,1,8.72,0Z" transform="translate(275 616)" fill="rgba(243,242,242,0)" stroke="#f3f2f2" stroke-width="1" opacity="0.996"/>
  </g>
</svg>
