<svg xmlns="http://www.w3.org/2000/svg" width="21.998" height="22.104" viewBox="0 0 21.998 22.104">
  <g id="home" transform="translate(-267.947 -56.993)">
    <path id="Intersection_66" data-name="Intersection 66" d="M13.815,18.183a.947.947,0,0,0-.84-.152c-.67.225-.795.136-.863-.581a2.507,2.507,0,0,0-.509-1.26,1.426,1.426,0,0,0-1.511-.733,1.568,1.568,0,0,1-.98-.139,2.255,2.255,0,0,0-1.754.04A14.73,14.73,0,0,0,4.811,16.5a10.572,10.572,0,0,1-1.285-1.317l0,0c.054-.121.121-.237.174-.362.612-1.409.5-1.737-.742-2.575-.392-.262-.857-.358-1.244-.616q-.072-.049-.134-.1-.122-.408-.213-.831a1.2,1.2,0,0,1,.369-.188c.449-.152.584-.384.526-.881A2.658,2.658,0,0,1,3.855,6.8a4.722,4.722,0,0,1,1.52-.52c.714-.1.971.083,1.136.76A5.883,5.883,0,0,1,6.586,8.8a.759.759,0,0,0,.383.816c.6.368.587.648.1,1.184A7.243,7.243,0,0,0,5.2,15.142a6.49,6.49,0,0,0,1.565-1.006,31.447,31.447,0,0,0,4.138-3.66,1.059,1.059,0,0,0,.316-.806A10.954,10.954,0,0,1,11.5,7.318a3.631,3.631,0,0,0-.362-2.3.927.927,0,0,0-1.063-.554A6.1,6.1,0,0,1,6.3,3.493c-.548-.275-.577-.7-.048-1.036a.474.474,0,0,0,.232-.646A4.461,4.461,0,0,1,6.423-.527q.026-.1.056-.194a10.4,10.4,0,0,1,1.3-.622A3.215,3.215,0,0,0,7.556,2,2.376,2.376,0,0,0,9.01,3.114c.556.135.824-.127.752-.687a1.312,1.312,0,0,0-.278-.614A4.99,4.99,0,0,1,9,.962.459.459,0,0,1,9.152.347.534.534,0,0,1,9.8.3a1.638,1.638,0,0,1,.626.731c.13.276.175.661.647.7A1.969,1.969,0,0,0,11.445.453,3.986,3.986,0,0,0,10.22-1.979a10.476,10.476,0,0,1,1.045-.086,2.9,2.9,0,0,1,.773,1.452,1.067,1.067,0,0,0,.411.747c.3-.064.28-.354.393-.537a.629.629,0,0,1,.85-.306.654.654,0,0,1,.169.95A12.293,12.293,0,0,0,12.41,3.382a4.616,4.616,0,0,0,.11,2.6,7.065,7.065,0,0,0,.554,1.328c.3.07.364-.148.477-.3a19.358,19.358,0,0,0,1.4-2.418,1.114,1.114,0,0,0,.2-.455c-.007-1.66.856-3.153,1-4.79q.017-.19.025-.365.392.192.764.415c-.181.791-.305,1.629-.493,2.554A3.72,3.72,0,0,0,17.882.807q.176-.25.362-.49a10.577,10.577,0,0,1,1.243,1.211,3.2,3.2,0,0,0-1.521.8,12.163,12.163,0,0,0-2.774,3.352,23.248,23.248,0,0,1-1.8,2.886c-.1.162-.274.3-.208.544.248.157.436-.044.624-.146.622-.328,1.242-.669,1.851-1.023a3.4,3.4,0,0,0,1.664-1.385c.1-.22.388-.36.595-.529a25.645,25.645,0,0,1,2.558-1.613,1.283,1.283,0,0,1,.7-.241,10.517,10.517,0,0,1,.619,1.831,5.625,5.625,0,0,0-1.289.221,1.861,1.861,0,0,0-1.212.785,4,4,0,0,0,1.562.249,3.125,3.125,0,0,1,.592.051c.23.064.435.22.393.492a.458.458,0,0,1-.582.4c-.229-.035-.454-.1-.684-.139a2.577,2.577,0,0,0-1,0c-.126.029-.258.12-.237.275a.232.232,0,0,0,.287.2,3.329,3.329,0,0,1,1.571.141,3.725,3.725,0,0,0,.876.185q-.015.432-.065.854a1.3,1.3,0,0,0-.744.465c-.222.27-.617.145-.936,0a10.022,10.022,0,0,1-2.572-1.471.926.926,0,0,0-1.268-.068C15,9.675,13.226,10.235,11.795,11.381a8.933,8.933,0,0,1-1.821,1.387,7.862,7.862,0,0,0-2.042,1.6,9.528,9.528,0,0,0,3.443-.619c.8-.242,1.575-.585,2.354-.9.365-.148.7-.434,1.08-.027.364.39.016.71-.137,1.135.813.025,1.573.056,2.337.066a2.947,2.947,0,0,1,1.077.18,2.128,2.128,0,0,1,1.338,1.3,10.57,10.57,0,0,1-.978.969,1.081,1.081,0,0,0-.514-1.549,2.046,2.046,0,0,0-.964-.211c-.286.013-.573.009-.86,0a7.694,7.694,0,0,0-1.632.095.771.771,0,0,1-.139.008c-.145,0-.294,0-.344.233a5.263,5.263,0,0,1,.463.34.576.576,0,0,1,.139.718c-.153.313-.428.214-.7.173-.253-.039-.434-.328-.806-.165A2.963,2.963,0,0,0,16.8,17.642a10.368,10.368,0,0,1-2.1.918A4.492,4.492,0,0,1,13.815,18.183ZM4.609,7.231a2.111,2.111,0,0,0-.882,3.492.786.786,0,0,0,.025-.8c-.1-.324-.045-.6.346-.685.413-.088.63.12.692.5a4.46,4.46,0,0,1,.032.491c.016.2.04.418.286.445.207.021.25-.185.324-.325a4.55,4.55,0,0,0,.438-2.3c-.019-.618-.268-.919-.726-.919A1.7,1.7,0,0,0,4.609,7.231Z" transform="translate(267.131 59.566)" fill="#f3f2f2" stroke="rgba(162,121,121,0)" stroke-miterlimit="10" stroke-width="1" opacity="0.078"/>
    <path id="Path_1034" data-name="Path 1034" d="M10.472,0A10.549,10.549,0,1,1,0,10.549,10.511,10.511,0,0,1,10.472,0Z" transform="translate(268.5 57.5)" fill="rgba(243,242,242,0)" stroke="#405550" stroke-width="1" opacity="0.996"/>
  </g>
</svg>
