<svg xmlns="http://www.w3.org/2000/svg" width="53.869" height="63.61" viewBox="0 0 53.869 63.61">
  <path id="logo" d="M13.864,11.074v1.3H15a9.032,9.032,0,0,1,3.779.5,2.563,2.563,0,0,1,1.133,1.837,39.884,39.884,0,0,1,.266,5.926v18.5a41.661,41.661,0,0,1-.266,6.127A2.9,2.9,0,0,1,18.69,47.2a6.654,6.654,0,0,1-3.409.622H13.7v1.3h17c1.1,0,2.1-.018,3.031-.043V60.121a59.63,59.63,0,0,1-.356,8.5,3.934,3.934,0,0,1-1.665,2.69q-1.316.863-4.732.863H25.569v1.805H49.945V72.17H48.179q-3.576,0-4.869-.942a4.143,4.143,0,0,1-1.589-2.887,69.749,69.749,0,0,1-.295-8.22V48.934h5.847q9.148,0,12.779-1.73a12.462,12.462,0,0,0,5.573-5.063,15.012,15.012,0,0,0,1.942-7.7,12.291,12.291,0,0,0-2.844-8.321,14.909,14.909,0,0,0-7.3-4.592,32.79,32.79,0,0,0-5.947-1.01c-.079-.162-.133-.334-.219-.5a16.9,16.9,0,0,0-7.112-7.059q-4.784-2.6-13.33-2.6-2.74,0-10.636.4ZM31.66,47.8q-3.42,0-4.484-.665a2.988,2.988,0,0,1-1.269-2.3q-.216-1.645-.216-7.328V22.556h.859q4.04,0,5.261.7a3.515,3.515,0,0,1,1.568,2.553,56.644,56.644,0,0,1,.356,8.206v13.7c-.669.043-1.352.076-2.075.076M46.234,22.2a27.874,27.874,0,0,1,1.215,8.533A21.623,21.623,0,0,1,45.284,41.02a12.625,12.625,0,0,1-3.858,4.563V22.322a39.845,39.845,0,0,1,4.085-.158c.259,0,.471.036.723.04m9.773,3.042q3.242,3.08,3.24,9.673a13.22,13.22,0,0,1-1.884,7.264,8.839,8.839,0,0,1-4.71,3.865,24.489,24.489,0,0,1-7.418.924h-.888a15.051,15.051,0,0,0,4.477-3.146,16.248,16.248,0,0,0,3.492-5.8,22.357,22.357,0,0,0,1.277-7.709,23.475,23.475,0,0,0-1.05-7.062,9.84,9.84,0,0,1,3.466,2M30.049,11.725a25.9,25.9,0,0,1,7.328.863,12.222,12.222,0,0,1,5.207,3.254A14.62,14.62,0,0,1,45.5,20.254c-.266,0-.5-.014-.777-.014q-4.471,0-12.481.273l-6.552.23V11.865q2.211-.14,4.358-.14" transform="translate(-13.699 -10.366)" fill="#f3f2f2"/>
</svg>
