<svg xmlns="http://www.w3.org/2000/svg" width="18.44" height="18.219" viewBox="0 0 18.44 18.219">
  <g id="registry_white" transform="translate(-188.5 -615.5)">
    <path id="Intersection_77" data-name="Intersection 77" d="M6.456,16.078a2.335,2.335,0,0,0-1.975-1.3c-.027,0-.062,0-.082.014-.633.606-1.568.869-2.031,1.666a8.2,8.2,0,0,1-1.377-.808.663.663,0,0,1,.1.029c1.006.377,1.541-.373,2.191-.843.262-.193.262-.444-.082-.575A2.089,2.089,0,0,0,1.679,14a.975.975,0,0,1-1.117-.561A2.593,2.593,0,0,1,.31,12.45a.7.7,0,0,1,.441-.74.738.738,0,0,1,.908.217,1.691,1.691,0,0,1,.361.575,1.466,1.466,0,0,0,1.08.971c.852.292,1.688.631,2.529.948.371.136.5.066.426-.307-.164-.806-.354-1.607-.545-2.408a1.211,1.211,0,0,0-.572-.717c-.484-.306-.764-.183-.859.392a1.374,1.374,0,0,1-.279.777.664.664,0,0,1-.75.217.655.655,0,0,1-.434-.584,1.067,1.067,0,0,1,.6-1.178c.486-.26.48-.405-.021-.636-.742-.339-1.373-.872-2.135-1.2A1.938,1.938,0,0,1,0,7.036c-.023-.315.027-.651.379-.768s.586.1.8.349A1.84,1.84,0,0,1,1.649,7.7c.047.617.463.834.934,1.05.105-.236-.037-.377-.076-.537-.082-.33-.191-.66-.242-.995A1,1,0,0,1,2.735,6.06a.773.773,0,0,1,.9.3,1.1,1.1,0,0,1,.182,1.319c-.137.268-.529.377-.471.749.068.438.422.73.65,1.088a.736.736,0,0,0,.324.259c.307.114.559.547.887.354.3-.179.068-.575.064-.872-.01-.593-.092-1.187-.068-1.776A3.86,3.86,0,0,0,3.841,4.66a1.416,1.416,0,0,0-.584-.315,1.731,1.731,0,0,1-1-1.8A.663.663,0,0,1,2.9,1.9a.71.71,0,0,1,.8.486,2.9,2.9,0,0,1,.129.494c.186,1.065.2,1.088,1.174,1.928.166-.113.133-.3.137-.462A39.916,39.916,0,0,0,5.433.137c0-.044,0-.088,0-.131.1,0,.2-.006.3-.006A8.009,8.009,0,0,1,7.415.178,1.949,1.949,0,0,1,7.28.957a.76.76,0,0,1-.768.532.457.457,0,0,0-.48.373,18.175,18.175,0,0,0-.154,4.5A19.432,19.432,0,0,1,6.937,3.633,4.962,4.962,0,0,1,8.062,2.309a.738.738,0,0,1,1-.075.793.793,0,0,1,.242.919,4.636,4.636,0,0,1-.238.716c-.252.547-.535.631-1.055.339-.5-.278-.518-.283-.709.213-.207.546-.367,1.112-.582,1.767a1.187,1.187,0,0,0,1.111-.655c.32-.443.617-.537.988-.377a1.033,1.033,0,0,1,.617,1.1c-.023.32-.129.561-.477.57-.393.014-.754.259-1.2-.043-.375-.254-1.373.448-1.52,1a4.991,4.991,0,0,0-.205,1.159,13.183,13.183,0,0,0,.412,3.793c.041.15.045.377.27.368.2-.01.252-.217.279-.373a2.452,2.452,0,0,1,.457-1.061.931.931,0,0,0,.082-.956,13.243,13.243,0,0,1-.4-1.39,1.782,1.782,0,0,1,.129-1.319c.232-.443.59-.485.947-.132a1.266,1.266,0,0,1,.039,1.842.729.729,0,0,0-.158.184.29.29,0,0,0,.037.321c.1.118.209.061.277-.038a12.911,12.911,0,0,0,1.834-2.46,1.585,1.585,0,0,1,.59-.791.686.686,0,0,1,.781-.095.87.87,0,0,1,.422.787,2.38,2.38,0,0,1-.471,1.15.879.879,0,0,1-1.08.405.551.551,0,0,0-.59.231c-.461.589-.934,1.173-1.354,1.8-.262.386-.113.627.371.659a6.383,6.383,0,0,0,1.17-.019,1.22,1.22,0,0,0,1-.64,1.226,1.226,0,0,1,1.408-.636,1.034,1.034,0,0,1,.795.98c-.021.367-.3.612-.8.706a5.8,5.8,0,0,1-1.07.066,4.631,4.631,0,0,0-1.25.108,4.346,4.346,0,0,1-.492.066c-.166.029-.354.066-.4.25-.062.236.115.349.285.462.352.236.691.494,1.047.73a.813.813,0,0,0,1.057.071.658.658,0,0,1,.564-.072,8.491,8.491,0,0,1-1.146,1.226,1.844,1.844,0,0,0-.607-.546c-.211-.108-.426-.372-.662-.136-.2.212.008.419.137.6a1.039,1.039,0,0,1,.213.784,8.1,8.1,0,0,1-1.08.6,1.111,1.111,0,0,1-.34-1.532c.563-.707.543-.9-.178-1.479-.238-.184-.34-.627-.7-.547s-.389.5-.553.791a2.024,2.024,0,0,0-.1,1.565,12.9,12.9,0,0,0,.5,1.688,7.886,7.886,0,0,1-.863.168C6.7,16.78,6.575,16.431,6.456,16.078Z" transform="translate(192.078 616)" fill="#f3f2f2" stroke="rgba(162,121,121,0)" stroke-miterlimit="10" stroke-width="1"/>
    <path id="Path_1041" data-name="Path 1041" d="M8.72,0a8.665,8.665,0,0,1,8.72,8.61,8.665,8.665,0,0,1-8.72,8.61A8.665,8.665,0,0,1,0,8.61,8.665,8.665,0,0,1,8.72,0Z" transform="translate(189 616)" fill="rgba(243,242,242,0)" stroke="#f3f2f2" stroke-width="1" opacity="0.996"/>
  </g>
</svg>
