<svg xmlns="http://www.w3.org/2000/svg" width="22.595" height="22.205" viewBox="0 0 22.595 22.205">
  <g id="rsvp" transform="translate(-104.463 -641.5)">
    <path id="Intersection_78" data-name="Intersection 78" d="M7.417,19.189c-.018-.3-.205-.472-.51-.627A5.256,5.256,0,0,1,4.914,16.93c-.644-.9-1.429-1.712-2.09-2.615a1.814,1.814,0,0,0-.854-.55,6.994,6.994,0,0,1-1.157-.576,10.571,10.571,0,0,1-.8-3.447c.162.094.315.209.49.325.062-.209-.182-.428.023-.6.38-.336.108-.492-.174-.626A3.229,3.229,0,0,0,0,8.7c.008-.219.021-.437.044-.653A2.713,2.713,0,0,1,1.564,9.077a6.42,6.42,0,0,1,1.585,4.19.683.683,0,0,0,.108.411,14.1,14.1,0,0,0,2.321,2.865c-.354-.631-.659-1.285-1-1.921a8.2,8.2,0,0,1-.741-2.494c-.051-.313-.18-.735.236-.9.385-.151.672.144.88.4a5.78,5.78,0,0,1,1.557,5.006,1.466,1.466,0,0,0,.572,1.342.262.262,0,0,0,.336.052c.092-.058.085-.168.092-.266a24.636,24.636,0,0,0-.41-4.757,2.63,2.63,0,0,0-1.221-1.974A5.659,5.659,0,0,1,3.775,7.18,14.592,14.592,0,0,1,3.9,2.185c.062-.381.126-.764.208-1.146S4.373.56,4.75.687a.964.964,0,0,1,.318.18,10.713,10.713,0,0,1,3.157,3.94,7.423,7.423,0,0,1,.133,5.608,7.262,7.262,0,0,0-.249,3.363c.023.289.1.567.167.96.705-.562,1.331-1.042,1.936-1.545a4.116,4.116,0,0,0,.81-1.041.7.7,0,0,0,.059-.759,6.72,6.72,0,0,1-.654-2.215,22.977,22.977,0,0,1-.585-6.123c.082-.845.156-1.7.262-2.534.059-.486.208-.567.7-.5A1.582,1.582,0,0,1,11.985.8a9.591,9.591,0,0,1,1.4,5.185,15.075,15.075,0,0,1-.336,3.177,4.968,4.968,0,0,0-.133,1.626c.844-.751,1.639-1.273,1.764-2.442A18.516,18.516,0,0,1,16.052,2.77c.295-.66.6-1.314.934-1.953.154.123.3.25.449.381a21.655,21.655,0,0,0-1.562,3.9,18.732,18.732,0,0,0-.385,2.048,7.591,7.591,0,0,0,.854-2.071,5.473,5.473,0,0,1,1.59-2.756.892.892,0,0,1,.349-.27q.162.183.315.373a2.205,2.205,0,0,1-.138.233c-.08.15-.18.289-.264.439a13.223,13.223,0,0,0-1.549,3.148,6.332,6.332,0,0,1-.633,1.632.515.515,0,0,0-.072.549,2.209,2.209,0,0,0,.867-1.279c.539-1.559,1.272-3.034,1.934-4.54.141.182.277.37.405.561A26.261,26.261,0,0,0,17.694,6.63a1.111,1.111,0,0,0,.492-.5c.313-.527.641-1.048.918-1.586.138-.273.272-.548.387-.827.11.189.215.381.313.576a10.032,10.032,0,0,1-2.021,3.179,25.516,25.516,0,0,1-2.093,2.088c.195.192.444.145.633.232a.617.617,0,0,0,.828-.232c.346-.416.936-.411,1.421-.579.285-.092.59-.1.875-.185a1.7,1.7,0,0,1,1.5.3,10.627,10.627,0,0,1-.1,1.466,2.892,2.892,0,0,1-.882.177,12.536,12.536,0,0,1-3.688-.325,2.391,2.391,0,0,0-2.706.637c-.133.162-.382.232-.433.521.567.052,1.123.109,1.682.15a7.909,7.909,0,0,1,1.6.306,15.154,15.154,0,0,0,2.372.579,1.753,1.753,0,0,1,.633.192,1.132,1.132,0,0,1,.6.628,10.405,10.405,0,0,1-.5.971l-.046.033a3.844,3.844,0,0,1-2.434.52,10.077,10.077,0,0,1-4.093-.925A4.284,4.284,0,0,1,11.4,12.746,16.6,16.6,0,0,1,9.064,14.9a2.094,2.094,0,0,0-.515,1.626,5.522,5.522,0,0,1,.092,1.221.178.178,0,0,0,.29.179c.572-.393,1.216-.787,1.193-1.568a4.39,4.39,0,0,1,.577-1.781.74.74,0,0,1,.839-.458.844.844,0,0,1,.282,1.03c-.108.219-.269.411-.392.62-.126.242-.064.434.221.5.305.081.623.133.941.209A6.473,6.473,0,0,1,15.244,17.7a1.426,1.426,0,0,1,.439.544A10.328,10.328,0,0,1,14,19.029a6.427,6.427,0,0,1-2.842-1.149c-.636-.5-.664-.5-1.208.064a2.611,2.611,0,0,1-.893.654.825.825,0,0,0-.536.8.541.541,0,0,0-.005.065A10.234,10.234,0,0,1,7.417,19.189Zm7.671-.713a3.689,3.689,0,0,0-2.375-1.3A2.469,2.469,0,0,0,15.088,18.476Zm-1.452-4.954a6.883,6.883,0,0,0,4.2.678,1.624,1.624,0,0,0-.949-.4,3.7,3.7,0,0,1-.608,0,3.8,3.8,0,0,0-.567.005,2.013,2.013,0,0,1-1.357-.225.819.819,0,0,0-.415-.124A.723.723,0,0,0,13.636,13.521Zm2.76-.746a2.586,2.586,0,0,0,1.126.591c.318.127.659.214.787.578.064.18.208.192.359.145.259-.087.572-.167.6-.474.028-.336-.295-.393-.549-.474a.449.449,0,0,0-.146-.03,4.97,4.97,0,0,1-1.711-.387.619.619,0,0,0-.218-.055A.373.373,0,0,0,16.4,12.775ZM4.588,12.584c.1.388.2.782.318,1.215.056-.52.457-1.053-.226-1.406A.163.163,0,0,0,4.588,12.584Zm7.927-.006c-.031.139.092.22.2.272a.949.949,0,0,0,.9-.052,1.461,1.461,0,0,0-.808-.365.418.418,0,0,0-.08-.008A.2.2,0,0,0,12.516,12.579ZM4.555,1.572a2.017,2.017,0,0,0-.123.492c-.1.944-.246,1.88-.282,2.824a8.6,8.6,0,0,0,.89,4.288,3.8,3.8,0,0,0,1.328,1.55,1.144,1.144,0,0,0-.005-.237A20.448,20.448,0,0,1,4.7,5.635a2.248,2.248,0,0,1-.059-.793A.3.3,0,0,1,4.86,4.57a.271.271,0,0,1,.308.145.8.8,0,0,1,.138.254C5.6,6.218,6.276,7.342,6.6,8.586a4.385,4.385,0,0,0,.8,1.586A14.177,14.177,0,0,0,6.768,6.23a19.672,19.672,0,0,0-.844-2.465c-.082-.168-.19-.4.051-.509.29-.133.369.139.48.313a.526.526,0,0,1,.059.139c.336,1.261.913,2.441,1.172,3.732.123.6.21,1.21.349,1.852.069-.093.115-.127.121-.168.49-3.195-.826-5.648-3.208-7.662a.312.312,0,0,0-.192-.089C4.668,1.373,4.593,1.44,4.555,1.572ZM19.02,9.581a2,2,0,0,0,1.046.1,4.967,4.967,0,0,1,.6-.012,1.068,1.068,0,0,0-.746-.309A3.136,3.136,0,0,0,19.02,9.581Zm-7.563-.8a11.129,11.129,0,0,0-.305-3.044A11.674,11.674,0,0,0,11.456,8.776Zm-.133-4.959a3.287,3.287,0,0,1,.169.625c.144,1,.277,2,.426,3,.026.185-.056.4.2.59a18.2,18.2,0,0,1,.031-2.65c.01-.248-.018-.51.282-.607s.285-.284.244-.515a10,10,0,0,0-1.054-2.986,1.82,1.82,0,0,0-.346-.463c-.336-.289-.623-.214-.687.209a13.512,13.512,0,0,0-.11,3.234c.01-.116.023-.232.033-.347.036-.243.059-.521.367-.567a.582.582,0,0,1,.067,0C11.213,3.338,11.254,3.608,11.323,3.817Z" transform="translate(105.006 643.639)" fill="#f3f2f2" stroke="rgba(162,121,121,0)" stroke-miterlimit="10" stroke-width="1" opacity="0.13"/>
    <path id="Path_1043" data-name="Path 1043" d="M10.475,0A10.411,10.411,0,1,1,0,10.411,10.443,10.443,0,0,1,10.475,0Z" transform="translate(105 642)" fill="rgba(243,242,242,0)" stroke="#425651" stroke-width="1" opacity="0.996"/>
  </g>
</svg>
