<svg xmlns="http://www.w3.org/2000/svg" width="21.95" height="22.122" viewBox="0 0 21.95 22.122">
  <g id="rsvp" transform="translate(-324.025 -121.66)">
    <path id="Intersection_123" data-name="Intersection 123" d="M-17124.15-15790.687a7.084,7.084,0,0,0,3.07-2.373,1.59,1.59,0,0,0,.2-.344c.178-.4.035-.637-.412-.628a2.368,2.368,0,0,0-.77.163,5.868,5.868,0,0,0-2.008,1.29,18.242,18.242,0,0,1-1.492,1.316c-.072.056-.146.113-.217.175a10.455,10.455,0,0,1-2.041-.938q.5-.768,1.012-1.52a12.943,12.943,0,0,0,1.061-1.8,1.573,1.573,0,0,0,.182-.757c-.031-.614-.387-.812-.92-.49a3.378,3.378,0,0,0-1.488,1.819c-.246.721-.475,1.45-.691,2.181-.191-.142-.379-.289-.561-.443.119-.442.221-.889.35-1.329a6.041,6.041,0,0,1,1.854-2.89,1.358,1.358,0,0,1,1.555-.322,1.2,1.2,0,0,1,.654,1.479,3.955,3.955,0,0,1-.949,2.343.54.54,0,0,0-.217.529c.268.142.332-.125.439-.245a23.851,23.851,0,0,0,4.059-6.454c.057-.12.086-.249.139-.37a1.289,1.289,0,0,0-.332-1.634,23.023,23.023,0,0,1-2.949-2.945,7.889,7.889,0,0,1-1.328-3.083,2.124,2.124,0,0,1,.086-1.054c.477-1.582,1.2-1.874,2.652-1.058.193.107.357.293.6.293a1.113,1.113,0,0,0,.383-.792,4.852,4.852,0,0,1,.408-1.093c.275.017.545.045.813.082a3.835,3.835,0,0,0-.176.456,4.652,4.652,0,0,0,.352,4.631c.242.314.518.891.99.821a1.958,1.958,0,0,0,1.311-.993,1.376,1.376,0,0,0,.146-.365,7.17,7.17,0,0,0-.012-3.822,10.462,10.462,0,0,1,1.127.564,7.2,7.2,0,0,1,.068.76,1.467,1.467,0,0,0,.523-.39c.229.153.453.316.668.486a3.4,3.4,0,0,0-.771,1.335c-.248.71-.484,1.424-.727,2.133a5.011,5.011,0,0,0,2.168-2.106,2.458,2.458,0,0,0,.223-.568q.313.312.6.647a6.188,6.188,0,0,1-1.529,2.1,27.519,27.519,0,0,0-3.4,3.754c-.812.954-.971,2.128-1.557,3.151a29.561,29.561,0,0,1-3.34,5.246,5.066,5.066,0,0,0-.34.46c.361.047.512-.172.705-.31a5.248,5.248,0,0,1,3.26-1.358.925.925,0,0,1,.945,1.289,4.269,4.269,0,0,1-.752,1.166,8.725,8.725,0,0,1-2.3,1.929A10.612,10.612,0,0,1-17124.15-15790.687Zm-.848-18.209a3.206,3.206,0,0,0,1.717,3.13c.459.245.688.155.7-.348a5.291,5.291,0,0,0-.457-2.456c-.211-.446-.5-.847-.963-.881a1.452,1.452,0,0,0-.482-.1C-17124.824-15809.552-17124.99-15809.331-17125-15808.9Z" transform="translate(17457.477 15933.836)" fill="#f3f2f2" stroke="rgba(162,121,121,0)" stroke-miterlimit="10" stroke-width="1" opacity="0.13"/>
    <path id="Path_1043" data-name="Path 1043" d="M10.475,0A10.411,10.411,0,1,1,0,10.411,10.443,10.443,0,0,1,10.475,0Z" transform="translate(324.525 122.179)" fill="rgba(243,242,242,0)" stroke="#425651" stroke-width="1" opacity="0.996"/>
  </g>
</svg>
