<svg xmlns="http://www.w3.org/2000/svg" width="19.151" height="18.67" viewBox="0 0 19.151 18.67">
  <g id="song_white" transform="translate(-104.46 -615.5)">
    <path id="Intersection_78" data-name="Intersection 78" d="M6.174,15.705c-.015-.246-.171-.387-.425-.513A4.361,4.361,0,0,1,4.09,13.856c-.536-.738-1.189-1.4-1.74-2.14a1.513,1.513,0,0,0-.711-.45,5.862,5.862,0,0,1-.963-.471A8.532,8.532,0,0,1,.011,7.973c.134.077.263.171.408.266.051-.171-.152-.35.019-.492.316-.275.09-.4-.145-.512A2.716,2.716,0,0,0,0,7.123c.006-.18.017-.358.036-.535A2.261,2.261,0,0,1,1.3,7.43a5.2,5.2,0,0,1,1.319,3.429.552.552,0,0,0,.09.336A11.577,11.577,0,0,0,4.643,13.54c-.295-.516-.549-1.052-.828-1.573A6.627,6.627,0,0,1,3.2,9.926c-.043-.256-.149-.6.2-.738.32-.123.559.118.732.331a4.68,4.68,0,0,1,1.3,4.1,1.191,1.191,0,0,0,.476,1.1.221.221,0,0,0,.28.043c.077-.047.07-.138.077-.217a19.836,19.836,0,0,0-.342-3.894A2.148,2.148,0,0,0,4.9,9.03,4.612,4.612,0,0,1,3.142,5.876a11.746,11.746,0,0,1,.1-4.088c.051-.312.1-.625.173-.938S3.64.458,3.954.562a.806.806,0,0,1,.265.147A8.8,8.8,0,0,1,6.846,3.934a5.981,5.981,0,0,1,.111,4.59,5.849,5.849,0,0,0-.207,2.752c.019.237.081.464.139.786C7.476,11.6,8,11.209,8.5,10.8a3.377,3.377,0,0,0,.675-.852.566.566,0,0,0,.049-.621A5.432,5.432,0,0,1,8.68,7.51,18.5,18.5,0,0,1,8.193,2.5c.068-.691.13-1.388.218-2.074.049-.4.173-.464.581-.407a1.318,1.318,0,0,1,.984.639A7.75,7.75,0,0,1,11.14,4.9a12.14,12.14,0,0,1-.28,2.6,4,4,0,0,0-.111,1.33c.7-.615,1.364-1.042,1.469-2a14.948,14.948,0,0,1,1.144-4.566c.246-.54.5-1.075.777-1.6.128.1.252.2.374.311a17.553,17.553,0,0,0-1.3,3.191,15.1,15.1,0,0,0-.32,1.677A6.155,6.155,0,0,0,13.6,4.153,4.463,4.463,0,0,1,14.927,1.9a.741.741,0,0,1,.29-.221q.134.15.263.306a1.8,1.8,0,0,1-.115.191c-.066.123-.149.237-.22.359a10.749,10.749,0,0,0-1.289,2.577,5.131,5.131,0,0,1-.527,1.336c-.066.123-.167.269-.06.45a1.807,1.807,0,0,0,.722-1.047c.448-1.276,1.059-2.483,1.61-3.716.117.149.231.3.337.459a21.3,21.3,0,0,0-1.208,2.836.916.916,0,0,0,.41-.412c.26-.431.534-.858.764-1.3.115-.223.226-.449.322-.677.092.154.179.311.26.472a8.194,8.194,0,0,1-1.682,2.6,21.066,21.066,0,0,1-1.742,1.709c.162.157.369.119.527.19a.518.518,0,0,0,.69-.19c.288-.341.779-.336,1.183-.474.237-.075.491-.085.728-.151a1.436,1.436,0,0,1,1.245.247,8.555,8.555,0,0,1-.083,1.2,2.443,2.443,0,0,1-.734.145,10.606,10.606,0,0,1-3.07-.266,2.013,2.013,0,0,0-2.252.521c-.111.133-.318.19-.361.427.472.043.935.089,1.4.123a6.683,6.683,0,0,1,1.328.251,12.792,12.792,0,0,0,1.975.474,1.477,1.477,0,0,1,.527.157.933.933,0,0,1,.5.514,8.464,8.464,0,0,1-.414.795l-.038.027a3.245,3.245,0,0,1-2.026.425,8.507,8.507,0,0,1-3.407-.757,3.554,3.554,0,0,1-1.289-1.047,13.736,13.736,0,0,1-1.945,1.762,1.7,1.7,0,0,0-.429,1.33,4.446,4.446,0,0,1,.077,1,.148.148,0,0,0,.241.147c.476-.321,1.012-.644.993-1.284a3.551,3.551,0,0,1,.48-1.458.618.618,0,0,1,.7-.375.684.684,0,0,1,.235.843c-.09.18-.224.337-.327.507-.1.2-.053.355.184.412.254.067.519.109.783.171a5.431,5.431,0,0,1,2.21,1,1.171,1.171,0,0,1,.365.445,8.665,8.665,0,0,1-1.4.642,5.4,5.4,0,0,1-2.365-.941c-.529-.408-.553-.408-1.006.052a2.172,2.172,0,0,1-.743.535.675.675,0,0,0-.446.654.436.436,0,0,0,0,.054A8.639,8.639,0,0,1,6.174,15.705Zm6.385-.584a3.085,3.085,0,0,0-1.977-1.066A2.062,2.062,0,0,0,12.559,15.122Zm-1.208-4.055a5.815,5.815,0,0,0,3.5.555,1.364,1.364,0,0,0-.79-.331,3.129,3.129,0,0,1-.506,0,3.212,3.212,0,0,0-.472,0,1.7,1.7,0,0,1-1.129-.184.69.69,0,0,0-.346-.1A.61.61,0,0,0,11.351,11.067Zm2.3-.611a2.165,2.165,0,0,0,.937.484c.265.1.549.175.655.473.053.147.173.157.3.119.216-.071.476-.137.5-.388.023-.275-.246-.322-.457-.388a.379.379,0,0,0-.122-.024,4.2,4.2,0,0,1-1.424-.317.523.523,0,0,0-.181-.045A.313.313,0,0,0,13.648,10.456ZM3.819,10.3c.081.317.169.64.265.994.047-.426.38-.862-.188-1.151A.132.132,0,0,0,3.819,10.3Zm6.6,0c-.026.113.077.18.169.223a.8.8,0,0,0,.749-.043,1.226,1.226,0,0,0-.672-.3.354.354,0,0,0-.066-.007A.164.164,0,0,0,10.418,10.3ZM3.791,1.287a1.628,1.628,0,0,0-.1.4C3.6,2.462,3.484,3.228,3.454,4a6.936,6.936,0,0,0,.741,3.51A3.128,3.128,0,0,0,5.3,8.779a.921.921,0,0,0,0-.194A16.546,16.546,0,0,1,3.915,4.612a1.81,1.81,0,0,1-.049-.649.245.245,0,0,1,.179-.223.227.227,0,0,1,.256.119.647.647,0,0,1,.115.208c.246,1.023.807,1.942,1.074,2.96a3.565,3.565,0,0,0,.662,1.3A11.426,11.426,0,0,0,5.634,5.1a15.917,15.917,0,0,0-.7-2.017c-.068-.138-.158-.326.043-.417.241-.109.307.113.4.256a.427.427,0,0,1,.049.114c.28,1.032.76,2,.976,3.054.1.488.175.99.29,1.516.058-.076.1-.1.1-.138C7.2,4.853,6.1,2.845,4.118,1.2a.261.261,0,0,0-.16-.073C3.885,1.123,3.823,1.179,3.791,1.287Zm12.04,6.555a1.692,1.692,0,0,0,.871.086,4.2,4.2,0,0,1,.5-.009.9.9,0,0,0-.621-.253A2.647,2.647,0,0,0,15.832,7.842Zm-6.3-.659a8.962,8.962,0,0,0-.254-2.491A9.4,9.4,0,0,0,9.536,7.183ZM9.425,3.124a2.655,2.655,0,0,1,.141.512c.12.819.231,1.639.354,2.458.021.151-.047.331.164.483a14.647,14.647,0,0,1,.026-2.169c.009-.2-.015-.417.235-.5s.237-.232.2-.422a8.094,8.094,0,0,0-.877-2.444A1.492,1.492,0,0,0,9.383.667C9.1.43,8.864.492,8.81.837a10.876,10.876,0,0,0-.092,2.647c.009-.095.019-.19.028-.284.03-.2.049-.426.305-.464a.492.492,0,0,1,.056,0C9.333,2.732,9.368,2.953,9.425,3.124Z" transform="translate(105.006 617.639)" fill="#f3f2f2" stroke="rgba(162,121,121,0)" stroke-miterlimit="10" stroke-width="1"/>
    <path id="Path_1043" data-name="Path 1043" d="M8.72,0A8.645,8.645,0,1,1,0,8.644,8.682,8.682,0,0,1,8.72,0Z" transform="translate(105 616)" fill="rgba(243,242,242,0)" stroke="#f3f2f2" stroke-width="1" opacity="0.996"/>
  </g>
</svg>
