<svg xmlns="http://www.w3.org/2000/svg" width="20" height="21" viewBox="0 0 20 21">
  <g id="Group_697" data-name="Group 697" transform="translate(-307 -179)">
    <path id="heart-plus" d="M12,18a5.966,5.966,0,0,0,.67,2.74l-.67.61-1.45-1.32C5.4,15.36,2,12.27,2,8.5A5.44,5.44,0,0,1,7.5,3,6.014,6.014,0,0,1,12,5.08,6.014,6.014,0,0,1,16.5,3,5.44,5.44,0,0,1,22,8.5a7.441,7.441,0,0,1-1.38,4.11A5.987,5.987,0,0,0,12,18" transform="translate(305 176)" fill="#f3f2f2"/>
    <text id="_" data-name="?" transform="translate(320 189)" fill="#f3f2f2" font-size="11" font-family="GreycliffCF-ExtraBold, Greycliff CF" font-weight="800" letter-spacing="0.181em"><tspan x="0" y="9">?</tspan></text>
  </g>
</svg>
