<svg xmlns="http://www.w3.org/2000/svg" width="14.665" height="14.665" viewBox="0 0 14.665 14.665">
  <path id="tag-plus" d="M16.232,9.025l-6.6-6.6A1.465,1.465,0,0,0,8.6,2H3.467A1.467,1.467,0,0,0,2,3.467V8.6a1.442,1.442,0,0,0,.433,1.034l.3.293a4.269,4.269,0,0,1,2.2-.594,4.4,4.4,0,0,1,4.4,4.4,4.3,4.3,0,0,1-.6,2.2l.293.293a1.465,1.465,0,0,0,1.041.44,1.442,1.442,0,0,0,1.034-.433L16.232,11.1a1.442,1.442,0,0,0,.433-1.034,1.471,1.471,0,0,0-.433-1.041M4.566,5.666a1.1,1.1,0,1,1,1.1-1.1,1.1,1.1,0,0,1-1.1,1.1m3.3,8.8h-2.2v2.2H4.2v-2.2H2V13H4.2V10.8H5.666V13h2.2Z" transform="translate(-2 -2)" fill="#f3f2f2"/>
</svg>
